PathFileType        4      (X/Y/Z)      C:\Users\pc\Desktop\IMUTRC\Sujet_08\Sujet_08_velo_60.trc         
DataRate	CameraRate	NumFrames	NumMarkers	Units	OrigDataRate	OrigDataStartFrame	OrigNumFrames
60.0	60.0	4	64	mm	60.0	351	934
Frame#	Time	pHipOrigin			pRightASI			pLeftASI			pRightCSI			pLeftCSI			pRightIschialTub			pLeftIschialTub			pSacrum			pL5SpinalProcess			pL3SpinalProcess			pT12SpinalProcess			pIJ			pT4SpinalProcess			pT8SpinalProcess			pPX			pC7SpinalProcess			pTopOfHead			pRightAuricularis			pLeftAuricularis			pBackOfHead			pRightAcromion			pLeftAcromion			pRightArmLatEpicondyle			pRightArmMedEpicondyle			pLeftArmLatEpicondyle			pLeftArmMedEpicondyle			pRightUlnarStyloid			pRightRadialStyloid			pRightOlecranon			pLeftUlnarStyloid			pLeftRadialStyloid			pLeftOlecranon			pRightTopOfHand			pRightPinky			pRightBallHand			pLeftTopOfHand			pLeftPinky			pLeftBallHand			pRightGreaterTrochanter			pRightKneeLatEpicondyle			pRightKneeMedEpicondyle			pRightPatella			pLeftGreaterTrochanter			pLeftKneeLatEpicondyle			pLeftKneeMedEpicondyle			pLeftPatella			pRightTibialTub			pRightLatMalleolus			pRightMedMalleolus			pLeftTibialTub			pLeftLatMalleolus			pLeftMedMalleolus			pRightHeelFoot			pRightFirstMetatarsal			pRightFifthMetatarsal			pRightPivotFoot			pRightHeelCenter			pRightToe			pLeftHeelFoot			pLeftFirstMetatarsal			pLeftFifthMetatarsal			pLeftPivotFoot			pLeftHeelCenter			pLeftToe			
		X1	Y1	Z1	X2	Y2	Z2	X3	Y3	Z3	X4	Y4	Z4	X5	Y5	Z5	X6	Y6	Z6	X7	Y7	Z7	X8	Y8	Z8	X9	Y9	Z9	X10	Y10	Z10	X11	Y11	Z11	X12	Y12	Z12	X13	Y13	Z13	X14	Y14	Z14	X15	Y15	Z15	X16	Y16	Z16	X17	Y17	Z17	X18	Y18	Z18	X19	Y19	Z19	X20	Y20	Z20	X21	Y21	Z21	X22	Y22	Z22	X23	Y23	Z23	X24	Y24	Z24	X25	Y25	Z25	X26	Y26	Z26	X27	Y27	Z27	X28	Y28	Z28	X29	Y29	Z29	X30	Y30	Z30	X31	Y31	Z31	X32	Y32	Z32	X33	Y33	Z33	X34	Y34	Z34	X35	Y35	Z35	X36	Y36	Z36	X37	Y37	Z37	X38	Y38	Z38	X39	Y39	Z39	X40	Y40	Z40	X41	Y41	Z41	X42	Y42	Z42	X43	Y43	Z43	X44	Y44	Z44	X45	Y45	Z45	X46	Y46	Z46	X47	Y47	Z47	X48	Y48	Z48	X49	Y49	Z49	X50	Y50	Z50	X51	Y51	Z51	X52	Y52	Z52	X53	Y53	Z53	X54	Y54	Z54	X55	Y55	Z55	X56	Y56	Z56	X57	Y57	Z57	X58	Y58	Z58	X59	Y59	Z59	X60	Y60	Z60	X61	Y61	Z61	X62	Y62	Z62	X63	Y63	Z63	X64	Y64	Z64	
351	5.833	0.0	1249.97582	7.653894434872941E-14	101.29240627202091	1328.01852	121.553898610657	76.47976795939095	1322.36325	-141.56231735488151	75.07184267355511	1402.3449	99.04669045914005	54.711677896585236	1397.65911	-117.6724964661415	-62.17945403691997	1212.81263	61.39170912621234	-72.26594390252444	1210.38894	-47.03342284255934	-56.91768023670866	1287.78533	4.566260304218797	4.586163883146452	1371.48329	-1.8164875263603522	68.41113556432204	1466.65338	-9.266591321216909	126.27394396141987	1554.22924	-15.470988827699017	368.9461307816601	1606.58087	-52.748322272657475	254.99087277083274	1692.21778	-30.83935877713198	191.74628415500746	1634.85721	-22.95876237054477	285.9428371190353	1524.49869	-42.60921716854857	295.4818529356251	1727.92676	-34.36436664980351	501.96164267204625	1842.97107	-118.54911289457822	469.2986419388549	1779.79365	-26.357668251856925	405.9147146725237	1782.86365	-145.16500207442203	407.69441191066505	1821.48105	-68.7219288431851	329.8444606658885	1667.01144	114.10893056481666	274.83004842399464	1680.09935	-194.53024444323614	463.986571582058	1418.82597	72.62533463855117	429.22590967897185	1406.70753	23.181160945735414	397.95655738458606	1414.30175	-160.51434255676676	368.5267203482344	1405.4149	-107.13001219503059	551.0125327717705	1183.56682	47.116507811329775	590.0494500868406	1204.24894	20.201000327327623	426.8540918747316	1405.4149	63.61679728057858	491.97710477770477	1184.69787	-167.07009240965974	536.7198804850709	1207.15736	-153.76636746916174	360.4908817132809	1401.69858	-142.50978924127534	717.9186267204898	1082.57989	100.82916278780301	627.7420126921048	1100.83832	85.58488323345927	586.7955050877847	1151.57416	44.23799466280184	638.6907056296583	1088.88147	-268.68424021365695	556.6652714831544	1104.23148	-226.8709393819256	528.2086125681437	1154.15942	-175.28388304374386	36.06763701806166	1238.66528	159.27452740006444	393.177504832688	1067.06829	136.43313306872543	395.25407485105296	1067.87619	59.521515375993694	410.26331658926676	1107.46306	96.2949641686479	-12.470737121682333	1212.81263	-157.24669134832016	203.14691341336373	879.47497	-156.47175625474324	227.624111069039	888.5234	-84.06600949939929	248.6868697827573	908.88237	-131.87058880812953	414.2706501489502	1019.72562	105.20514602201288	137.64391874449416	764.1075	168.48936774653885	139.61059485074338	754.41276	108.94997023596514	267.21101847180154	853.13758	-127.12763806632535	189.77008658545083	481.18252	-166.21367956138712	196.7235976943427	478.43568	-106.08584816350435	55.150224941723636	731.30695	141.30998221063612	161.56013608278826	618.04001	111.0154777721802	162.375466752134	622.7258	185.48372851514395	176.54131974845473	604.9521	147.9480518015661	82.81864158803155	706.42377	142.5790929845287	231.12941980395402	546.94521	151.0105420060884	130.3299124546955	418.81299	-127.80121584318125	277.7247749996969	364.03768	-109.52289784319687	268.4574113633342	363.55295	-183.5126086109673	292.8546008784789	356.12031	-147.87302576635037	165.72891458830563	407.9872	-132.22407682792493	366.3108215274411	326.87449	-156.90632299496943	
352	5.85	0.0	1249.97582	7.653894434872941E-14	100.91803965346261	1328.1801	121.81603293902558	77.11626890631781	1322.04009	-141.45008506469182	74.9127174368234	1402.3449	99.01863238659263	55.37623691605952	1397.33595	-117.71938941268353	-62.469646437835976	1212.97421	61.176467744385796	-72.23788582997702	1210.38894	-47.19254807929105	-56.861564091613815	1287.94691	4.248009830755371	4.773345455943811	1371.32171	-1.947544842467112	68.57026080105375	1466.65338	-9.238533248669485	126.3020020339673	1554.22924	-15.630114064430728	369.1052560183918	1606.58087	-52.72026420011005	255.01893084338016	1692.21778	-30.998484013863706	191.90540939173914	1634.85721	-22.93070429799735	286.0739042832196	1524.49869	-42.422033859269426	295.5099110081725	1727.92676	-34.52349188653522	502.2798931455097	1842.97107	-118.49299674948337	469.2986419388549	1779.63207	-26.357668251856925	406.0738399092554	1782.70207	-145.1369440018746	407.8815952199442	1821.48105	-68.85299600736941	329.8444606658885	1667.01144	114.10893056481666	275.1763569700055	1679.93777	-194.633253534873	463.7244372536894	1418.66439	72.2509680199929	428.9637753506033	1406.70753	22.806794327177144	397.8535482929492	1413.97859	-160.86065110277758	368.2645860198659	1405.09174	-107.50437881358881	550.7503984434019	1183.56682	46.7421411927715	589.9464409952037	1204.24894	19.85469178131679	426.5919656579587	1405.4149	63.242442246579614	491.71497044933625	1184.37471	-167.444459028218	536.4858042292498	1206.67262	-154.29985932445166	360.3598243971741	1401.21385	-142.69697081407267	717.6284343195738	1082.57989	100.61392140597646	627.4518301392663	1100.83832	85.36964358811449	586.5333707594162	1151.57416	43.863628044243576	638.4285713012897	1088.55831	-269.0586068322152	556.4311952273332	1103.90832	-227.4044312372156	528.1336598125724	1153.67468	-175.78930697840894	36.78831218263078	1240.1195	158.90938398005898	399.9256727769049	1081.93357	133.52122165746263	401.1785683871414	1082.57989	56.62844057520727	415.10200138885824	1122.81308	93.04635935977956	-13.64072007582164	1212.48947	-157.12484564620692	191.16608686185668	872.68865	-156.45136516589795	216.52307507075525	881.09076	-84.38270549449376	237.77301709375277	900.64183	-132.31835196740832	421.8425023493731	1035.07563	102.27439973675548	151.71180818605978	772.83277	166.86812072653038	153.86566760158814	762.81487	107.19765605177238	255.47348152659097	845.22021	-127.55656635160952	173.7738692771876	474.07304	-165.75281193167194	180.9145619588768	471.3262	-105.75603784989592	70.09791478459009	737.77011	139.35164984316964	179.51234911692583	627.4116	108.76657090202275	180.00943916088565	631.77423	183.1787072363734	194.81178325605572	614.64685	145.75526107650347	98.43088060229476	713.53325	140.57386593403842	250.88811673915777	558.09417	148.7520217240074	113.07953797465069	413.31931	-126.74112680115766	259.3605238625301	355.15083	-108.65921530900526	249.6157845159722	354.50452	-182.73310029441797	274.0129740311169	346.74872	-147.093517449801	148.31940502345154	401.68561	-131.19204759493056	346.86075180569975	315.72554	-156.39817220534152	
353	5.867	0.0	1249.97582	7.653894434872941E-14	100.57173110745177	1328.1801	121.91904203066244	77.56558654396552	1321.71693	-141.20678561031787	74.75359220009169	1402.50648	98.99057431404522	55.722545462070364	1397.17437	-117.82239850432039	-62.60071360202027	1212.97421	60.98928443510667	-72.05070252069788	1210.38894	-47.323615243475345	-56.8335060190664	1287.94691	4.088884594023658	4.8014035284912335	1371.32171	-2.106670079198824	68.7855021828803	1466.4918	-9.52872564958549	126.48918534324643	1554.06766	-15.761181228615023	369.292439327671	1606.41929	-52.85133136429433	255.23417222520675	1692.21778	-31.288676414779705	192.1206409254882	1634.69563	-23.220898435395135	286.26108759249877	1524.49869	-42.55310102345371	295.72515238999904	1727.76518	-34.81368428745123	502.65425976406794	1842.64791	-118.75513107785194	469.6729987093356	1779.47049	-26.619804316707278	406.4482065278137	1782.54049	-145.39907833024319	408.2559618385024	1821.31947	-69.115130335738	329.87251873843593	1667.01144	113.94980532808495	275.52266551601633	1679.61461	-194.7362626265099	463.6214281620526	1418.66439	71.90465947398204	429.0479478317638	1406.70753	22.329428465059536	398.06878793829395	1413.65544	-161.15083365561608	368.4798274016924	1404.76859	-107.79457121450483	550.8345726610441	1183.56682	46.26476548257636	590.030615212846	1204.24894	19.377316071121644	426.5170146388693	1405.4149	62.73700846383705	491.9582681672284	1184.05155	-167.89376681778816	536.729101947142	1206.34947	-154.7491671140219	360.57505593092316	1400.89069	-142.98716495147048	717.6564906556395	1082.57989	100.45480601732227	627.3488210476295	1100.9999	85.02333504210364	586.6175449770585	1151.57416	43.38625233404845	638.6718690191818	1088.23515	-269.5079146217854	556.6464366091598	1103.58517	-227.69462363813165	528.3769592669464	1153.35153	-176.23862461605665	37.640044663306654	1241.57371	158.7314221328509	405.69105092433927	1095.99095	130.60009052061056	406.4385127518332	1096.31411	53.78226045744463	419.0889438596963	1137.19362	89.97571466163755	-14.810703029960937	1212.32789	-157.0029999440937	181.3099848368017	867.35654	-156.38447308036314	207.359590137722	875.27392	-84.52183159223267	228.824773542546	894.17867	-132.74767046606323	428.5906784051858	1049.61775	99.36249991005202	166.4442566470997	779.78068	165.19998075997987	168.7291814903306	769.76277	105.71670924257857	245.35525502124494	838.75704	-127.86403914815119	157.7495840482994	468.90251	-165.1328208017068	165.23658527599946	465.99409	-105.23905581156765	85.97229623881762	741.97117	137.72080099579694	198.9808634992911	635.49055	106.29281097459695	199.29076038589426	639.36845	180.83601273665013	214.59854811188436	622.88738	143.33761729417253	115.15699453719819	718.70378	138.76505523945764	272.40640289240383	568.27365	145.81933885860607	95.98828061974181	409.44141	-125.65299127114596	240.83715733670905	348.20293	-107.82358911087931	230.933282905342	347.39504	-181.9255339053212	255.33047415696848	339.31608	-146.2859609087818	130.75078180642507	397.1614	-130.1880845460794	327.38263385948846	306.67711	-155.7308944425001	
354	5.883	0.0	1249.97582	7.653894434872941E-14	100.54367303490436	1328.34168	122.07816726739415	77.75276985324466	1321.39378	-141.33785277450215	74.7816502726391	1402.50648	98.83144907731351	56.068844160003685	1396.85121	-117.92540933243903	-62.75983883875198	1213.29737	60.961226362559245	-72.05070252069788	1210.38894	-47.323615243475345	-56.805447946518974	1287.94691	3.929759357291947	4.988576989692838	1371.32171	-2.237738979864891	68.97268549215941	1466.4918	-9.659792813769783	126.73248479762042	1553.90608	-16.210498866262732	369.6668059462292	1606.25771	-53.11346569266293	255.44941187055153	1692.0562	-31.578858967618178	192.3358823073147	1634.53405	-23.51109083631114	286.635454211057	1524.17553	-42.815235351822295	295.9684501078913	1727.6036	-35.2629920770214	503.05668271869183	1842.16318	-119.17638079487467	469.9162981637096	1779.14733	-27.069121954355	406.8506312189194	1782.05575	-145.82033789534353	408.68644286567377	1820.99631	-69.69550528949247	329.9286348835308	1666.84987	113.63155485462151	275.76596323390856	1679.29146	-195.18557041608005	463.73365871576055	1418.50281	71.26816837513272	429.1601801219535	1406.70753	21.692927518132684	398.3120873926679	1413.1707	-161.6001512932638	368.88224224472054	1404.44543	-108.21583251608692	551.1339865240311	1183.56682	45.49720721954274	590.3019727397674	1204.24894	18.768873196742195	426.629246929059	1405.25332	62.1005075169102	492.38875093088154	1183.72839	-168.4741516196202	537.1315167901702	1206.18789	-155.17042841560394	360.81835538529714	1400.56753	-143.43648258911819	717.8717320374661	1082.74146	100.16461361640627	627.7512440022535	1100.9999	84.60208532508089	587.0199679316823	1151.57416	42.96500261702567	639.2614770195667	1088.07357	-270.0602413510699	557.2360330249853	1103.26201	-228.24694225582044	528.7793839580521	1153.18995	-176.65988418115688	38.49178525557829	1243.02792	158.5534718702021	410.76380213167437	1109.07886	127.88497583055046	410.7156476235873	1108.91728	50.9268571411292	422.43939523168507	1150.4431	86.79283940978763	-15.980695832177773	1212.16631	-156.8811559784622	173.31649270598527	863.31706	-156.64544314373347	200.05870351436795	871.07286	-84.98881172728102	221.55194499173936	889.3313	-133.37377583784325	434.67429717800604	1063.35197	96.49748318181301	182.0003876278638	784.95121	163.51301576751231	184.44442959623063	774.9333	104.05779073809913	237.04351068048334	833.58651	-128.18111550853885	141.88443390422043	465.50935	-164.4847698627125	149.3714351319205	462.60093	-104.59100487257335	102.85752729885701	744.0717	135.94003678920424	219.61935909931384	642.11529	103.69721519313542	219.9292577223988	645.50845	178.24040710711108	235.77052571911955	629.83528	140.50794352040808	132.73485080085499	721.93536	136.77828443415052	295.60011563060925	577.32208	142.68986100848386	78.89702152835119	407.66404	-124.56484589305676	222.31378269929235	343.19398	-106.98797449731266	212.0636095699919	342.22451	-180.9869084636359	236.32973192095236	333.66082	-145.5345089282981	113.34128208964854	394.41455	-129.15605357660326	307.55820910374814	299.24447	-154.96061743609934	
